<?xml version="1.0" encoding="iso-8859-1"?>
<!-- Generator: Adobe Illustrator 19.0.0, SVG Export Plug-In . SVG Version: 6.00 Build 0)  -->
<svg version="1.1" id="Capa_1" xmlns="http://www.w3.org/2000/svg" xmlns:xlink="http://www.w3.org/1999/xlink" x="0px" y="0px"
	 viewBox="0 0 512 512" style="enable-background:new 0 0 512 512;" xml:space="preserve">
<path style="fill:#FF5A5F;" d="M506.028,261.972C506.028,399.181,395.003,512,256,512C117.358,512,5.972,399.522,5.972,261.972
	C5.972,123.884,117.913,11.943,256,11.943C394.344,11.943,506.028,124.121,506.028,261.972z"/>
<path style="fill:#FFC396;" d="M491.984,214.271c-0.806-46.017-9.51-55.892-14.58-131.497c-1.2-17.782-8.69-31.029-19.942-40.168
	c0,0-55.014-40.12-70.892-42.606c0,0-31.789,8.031-49.1,13.646c-5.633,1.822-9.725,6.6-10.724,12.323
	c-0.129,0.673-0.2,1.371-0.237,2.066c-0.811,18.299-0.955,12.688,8.466,44.423c0,0,12.891,18.71,33.07,9.625
	c11.426,8.096,14.62,0.597,54.362,7.715c1.287,6.438,3.912,14.596,4.719,19.679c1.667,9.141,0.186,16.833-0.071,17.413
	c-8.903,60.553-38.736,101.625-44.903,126.652c-0.573,2.118-3.949,2.224-4.79-0.196c-6.065-17.502-22.283-26.321-26.321-28.771
	c-17.377-10.557-46.295-13.692-66.71-14.516l-2.288-1.268c-5.182-4.797-14.009-19.279-28.937-33.109
	c-15.074-13.952-36.589-27.568-67.678-31.057l-19.282-2.17L40.854,179.493c-0.027,0.175-0.058,0.34-0.073,0.51
	c-0.988,6.271-1.758,12.587-2.295,18.931l123.212,96.333l-0.645,0.461c39.839,29.075,100.342,88.919,209.446,82.561l12.473-1.796
	c0.004,0.01-0.006,0.014-0.006,0.014c49.88,2.899,35.18,2.58,66.211,1.777c16.722-2.177,29.26-16.377,29.346-33.233
	C478.647,318.249,492.917,267.163,491.984,214.271z"/>
<path style="fill:#FFAF82;" d="M478.666,340.494c1.427-26.832,13.351-72.938,13.36-121.149
	c-11.269,39.618-18.423,80.757-37.931,118.365c-3.043,5.866-8.977,9.672-15.579,9.97c-10.724,0.484-34.337,1.117-52.516-1.406
	c-4.1-0.569-8.293-0.311-12.25,0.912c-43.705,13.502-116.883-23.44-141.518-49.719c-70.405-39.491-122.271-94.017-151.528-129.753
	l-39.852,11.78c-0.027,0.175-0.057,0.34-0.073,0.51c-0.988,6.271-1.759,12.587-2.295,18.931l123.212,96.334l-0.645,0.461
	c39.839,29.075,100.342,88.919,209.446,82.561l12.473-1.796c0.004,0.01-0.006,0.014-0.006,0.014
	c49.88,2.899,35.18,2.58,66.211,1.777c16.722-2.178,29.26-16.377,29.346-33.232c0.003-0.756,0.021-1.535,0.045-2.33
	C478.592,341.997,478.624,341.257,478.666,340.494L478.666,340.494z"/>
<path style="fill:#1E8CE6;" d="M219.307,151.525l-60.02,173.072c-18.408,53.064-19.993,115.44-20.497,158.306
	C59.612,440.819,5.972,357.432,5.972,261.975c0-64.712,24.582-123.682,64.917-168.071c30.149,3.838,66.852,5.927,113.783,27.731
	l27.329,12.687C218.484,137.336,221.643,144.765,219.307,151.525z"/>
<path style="fill:#1478D2;" d="M165.657,306.23l-6.369,18.367c-11.957,34.47-16.813,72.871-18.892,107.29
	C68.245,381.098,21.097,297.165,21.097,202.223c0-10.29,0.556-20.446,1.636-30.437c8.859-22.894,20.991-44.163,35.829-63.22
	C71.764,195.277,111.862,267.5,165.657,306.23z"/>
<path style="fill:#FF9B69;" d="M382.151,253.537c2.792-11.333,10.439-25.957,18.798-44.19
	c10.098-22.028,21.237-49.325,26.106-82.455c0.257-0.587,1.739-8.273,0.072-17.42c-0.803-5.083-3.437-13.232-4.723-19.674
	c-5.752-1.029-10.732-1.749-15.085-2.264l22.576-3.673C474.655,145.084,382.1,253.733,382.151,253.537z"/>
<path style="fill:#FFAF82;" d="M443.948,78.034c-9.975,11.33-21.539,11.764-21.539,11.764c-39.743-7.118-42.937,0.381-54.362-7.715
	c-20.179,9.085-33.07-9.625-33.07-9.625c-9.42-31.734-9.276-26.124-8.466-44.423c0.037-0.696,0.108-1.393,0.237-2.066
	c12.832,11.567,30.97,25.138,53.306,34.568c2.673,1.129,4.669,3.44,5.396,6.249c0.312,0.692,0.49,4.879,4.741,6.697
	c8.162,3.488,29.764,10.803,52.217,2.343C443.757,75.316,444.902,76.949,443.948,78.034z"/>
<g>
</g>
<g>
</g>
<g>
</g>
<g>
</g>
<g>
</g>
<g>
</g>
<g>
</g>
<g>
</g>
<g>
</g>
<g>
</g>
<g>
</g>
<g>
</g>
<g>
</g>
<g>
</g>
<g>
</g>
</svg>
